<svg xmlns="http://www.w3.org/2000/svg" xmlns:xlink="http://www.w3.org/1999/xlink" width="500" zoomAndPan="magnify" viewBox="0 0 375 374.999991" height="500" preserveAspectRatio="xMidYMid meet" version="1.0"><defs><g/></defs><g fill="#ffffff" fill-opacity="1"><g transform="translate(103.867389, 223.299485)"><g><path d="M 89.203125 -1.703125 C 89.390625 -1.328125 89.335938 -0.945312 89.046875 -0.5625 C 88.765625 -0.1875 88.390625 0 87.921875 0 L 68.3125 0 C 67.65625 0 67.226562 -0.285156 67.03125 -0.859375 L 44.59375 -64.203125 L 22.4375 -0.859375 C 22.34375 -0.285156 21.867188 0 21.015625 0 L 1.5625 0 C 0.894531 0 0.441406 -0.1875 0.203125 -0.5625 C -0.0234375 -0.945312 -0.046875 -1.328125 0.140625 -1.703125 L 43.171875 -112.765625 C 43.367188 -113.335938 43.84375 -113.625 44.59375 -113.625 C 45.351562 -113.625 45.828125 -113.335938 46.015625 -112.765625 Z M 89.203125 -1.703125 "/></g></g></g><g fill="#ffffff" fill-opacity="1"><g transform="translate(188.268509, 273.282616)"><g><path d="M 59.234375 -92.46875 L 81.09375 -92.46875 L 45.59375 -0.703125 C 45.40625 -0.234375 44.976562 0 44.3125 0 C 43.644531 0 43.171875 -0.234375 42.890625 -0.703125 L 0.140625 -111.921875 C -0.046875 -112.390625 -0.0234375 -112.789062 0.203125 -113.125 C 0.441406 -113.457031 0.847656 -113.625 1.421875 -113.625 L 20.734375 -113.625 C 21.585938 -113.625 22.0625 -113.335938 22.15625 -112.765625 L 44.3125 -50.84375 Z M 59.234375 -92.46875 "/></g></g></g><g fill="#ffffff" fill-opacity="1"><g transform="translate(106.15269, 253.911444)"><g><path d="M 2.5625 0 L -0.046875 0 L 3.65625 -10.03125 L 6.234375 -10.03125 L 9.859375 0 L 7.265625 0 L 6.734375 -1.6875 L 3.09375 -1.6875 Z M 4.890625 -7.5625 C 4.804688 -7.269531 4.710938 -6.953125 4.609375 -6.609375 C 4.515625 -6.273438 4.347656 -5.726562 4.109375 -4.96875 L 3.703125 -3.640625 L 6.109375 -3.640625 L 5.703125 -4.96875 C 5.554688 -5.375 5.414062 -5.800781 5.28125 -6.25 C 5.144531 -6.707031 5.015625 -7.144531 4.890625 -7.5625 Z M 4.890625 -7.5625 "/></g></g></g><g fill="#ffffff" fill-opacity="1"><g transform="translate(124.710314, 253.911444)"><g><path d="M 3.25 -3.234375 L 3.25 0 L 0.765625 0 L 0.765625 -10.03125 L 4.4375 -10.03125 C 5.976562 -10.03125 7.070312 -9.769531 7.71875 -9.25 C 8.375 -8.726562 8.703125 -7.859375 8.703125 -6.640625 C 8.703125 -5.816406 8.523438 -5.144531 8.171875 -4.625 C 7.828125 -4.113281 7.304688 -3.738281 6.609375 -3.5 L 9.0625 0 L 6.078125 0 L 4 -3.234375 Z M 6.1875 -6.640625 C 6.1875 -7.066406 6.054688 -7.363281 5.796875 -7.53125 C 5.546875 -7.707031 5.09375 -7.796875 4.4375 -7.796875 L 3.25 -7.796875 L 3.25 -5.234375 L 4.4375 -5.234375 C 5.09375 -5.234375 5.546875 -5.335938 5.796875 -5.546875 C 6.054688 -5.753906 6.1875 -6.117188 6.1875 -6.640625 Z M 6.1875 -6.640625 "/></g></g></g><g fill="#ffffff" fill-opacity="1"><g transform="translate(142.660085, 253.911444)"><g><path d="M 8.140625 -10.03125 L 8.140625 -7.796875 L 5.40625 -7.796875 L 5.40625 0 L 2.921875 0 L 2.921875 -7.796875 L 0.1875 -7.796875 L 0.1875 -10.03125 Z M 8.140625 -10.03125 "/></g></g></g><g fill="#ffffff" fill-opacity="1"><g transform="translate(159.714069, 253.911444)"><g><path d="M 10.8125 -10.03125 L 10.8125 0 L 8.5 0 L 8.5 -6.015625 L 6.78125 -1.921875 L 4.765625 -1.921875 L 3.09375 -6.015625 L 3.09375 0 L 0.765625 0 L 0.765625 -10.03125 L 3.796875 -10.03125 L 5.828125 -4.96875 L 7.90625 -10.03125 Z M 10.8125 -10.03125 "/></g></g></g><g fill="#ffffff" fill-opacity="1"><g transform="translate(180.015268, 253.911444)"><g><path d="M 7.6875 -2.3125 L 7.6875 0 L 0.765625 0 L 0.765625 -10.03125 L 7.53125 -10.03125 L 7.53125 -7.796875 L 3.25 -7.796875 L 3.25 -6.125 L 6.9375 -6.125 L 6.9375 -4.046875 L 3.25 -4.046875 L 3.25 -2.3125 Z M 7.6875 -2.3125 "/></g></g></g><g fill="#ffffff" fill-opacity="1"><g transform="translate(229.420405, 175.968197)"><g><path d="M 4.578125 -3.75 L 2.546875 -4.21875 C 1.734375 -4.414062 1.179688 -4.710938 0.890625 -5.109375 C 0.597656 -5.503906 0.453125 -6.066406 0.453125 -6.796875 C 0.453125 -7.960938 0.753906 -8.816406 1.359375 -9.359375 C 1.972656 -9.910156 2.925781 -10.1875 4.21875 -10.1875 C 4.757812 -10.1875 5.234375 -10.164062 5.640625 -10.125 C 6.054688 -10.082031 6.441406 -10.007812 6.796875 -9.90625 L 6.796875 -7.6875 C 5.984375 -7.820312 5.425781 -7.898438 5.125 -7.921875 C 4.820312 -7.941406 4.503906 -7.953125 4.171875 -7.953125 C 3.722656 -7.953125 3.394531 -7.875 3.1875 -7.71875 C 2.988281 -7.570312 2.890625 -7.320312 2.890625 -6.96875 C 2.890625 -6.800781 2.921875 -6.671875 2.984375 -6.578125 C 3.054688 -6.492188 3.179688 -6.429688 3.359375 -6.390625 L 5.28125 -5.9375 C 5.832031 -5.8125 6.226562 -5.6875 6.46875 -5.5625 C 6.71875 -5.4375 6.921875 -5.28125 7.078125 -5.09375 C 7.242188 -4.882812 7.363281 -4.617188 7.4375 -4.296875 C 7.519531 -3.984375 7.5625 -3.597656 7.5625 -3.140625 C 7.5625 -1.972656 7.253906 -1.128906 6.640625 -0.609375 C 6.023438 -0.0976562 5.066406 0.15625 3.765625 0.15625 C 3.097656 0.15625 2.460938 0.113281 1.859375 0.03125 C 1.265625 -0.0390625 0.804688 -0.132812 0.484375 -0.25 L 0.484375 -2.609375 C 0.910156 -2.472656 1.414062 -2.363281 2 -2.28125 C 2.582031 -2.195312 3.171875 -2.15625 3.765625 -2.15625 C 4.234375 -2.15625 4.554688 -2.210938 4.734375 -2.328125 C 4.921875 -2.453125 5.015625 -2.691406 5.015625 -3.046875 C 5.015625 -3.265625 4.984375 -3.425781 4.921875 -3.53125 C 4.859375 -3.632812 4.742188 -3.707031 4.578125 -3.75 Z M 4.578125 -3.75 "/></g></g></g><g fill="#ffffff" fill-opacity="1"><g transform="translate(238.05852, 175.968197)"><g><path d="M 3.25 0 L 0.765625 0 L 0.765625 -10.03125 L 3.25 -10.03125 L 3.25 -6.203125 L 6.765625 -6.203125 L 6.765625 -10.03125 L 9.25 -10.03125 L 9.25 0 L 6.765625 0 L 6.765625 -3.96875 L 3.25 -3.96875 Z M 3.25 0 "/></g></g></g><g fill="#ffffff" fill-opacity="1"><g transform="translate(248.88811, 175.968197)"><g><path d="M 2.5625 0 L -0.046875 0 L 3.65625 -10.03125 L 6.234375 -10.03125 L 9.859375 0 L 7.265625 0 L 6.734375 -1.6875 L 3.09375 -1.6875 Z M 4.890625 -7.5625 C 4.804688 -7.269531 4.710938 -6.953125 4.609375 -6.609375 C 4.515625 -6.273438 4.347656 -5.726562 4.109375 -4.96875 L 3.703125 -3.640625 L 6.109375 -3.640625 L 5.703125 -4.96875 C 5.554688 -5.375 5.414062 -5.800781 5.28125 -6.25 C 5.144531 -6.707031 5.015625 -7.144531 4.890625 -7.5625 Z M 4.890625 -7.5625 "/></g></g></g><g fill="#ffffff" fill-opacity="1"><g transform="translate(259.541747, 175.968197)"><g><path d="M 3.25 -3.234375 L 3.25 0 L 0.765625 0 L 0.765625 -10.03125 L 4.4375 -10.03125 C 5.976562 -10.03125 7.070312 -9.769531 7.71875 -9.25 C 8.375 -8.726562 8.703125 -7.859375 8.703125 -6.640625 C 8.703125 -5.816406 8.523438 -5.144531 8.171875 -4.625 C 7.828125 -4.113281 7.304688 -3.738281 6.609375 -3.5 L 9.0625 0 L 6.078125 0 L 4 -3.234375 Z M 6.1875 -6.640625 C 6.1875 -7.066406 6.054688 -7.363281 5.796875 -7.53125 C 5.546875 -7.707031 5.09375 -7.796875 4.4375 -7.796875 L 3.25 -7.796875 L 3.25 -5.234375 L 4.4375 -5.234375 C 5.09375 -5.234375 5.546875 -5.335938 5.796875 -5.546875 C 6.054688 -5.753906 6.1875 -6.117188 6.1875 -6.640625 Z M 6.1875 -6.640625 "/></g></g></g><g fill="#ffffff" fill-opacity="1"><g transform="translate(269.587531, 175.968197)"><g><path d="M 7.6875 -2.3125 L 7.6875 0 L 0.765625 0 L 0.765625 -10.03125 L 7.53125 -10.03125 L 7.53125 -7.796875 L 3.25 -7.796875 L 3.25 -6.125 L 6.9375 -6.125 L 6.9375 -4.046875 L 3.25 -4.046875 L 3.25 -2.3125 Z M 7.6875 -2.3125 "/></g></g></g></svg>